<svg width="14" height="12" viewBox="0 0 14 12" fill="none" xmlns="http://www.w3.org/2000/svg">
<path fill-rule="evenodd" clip-rule="evenodd" d="M2.5 3.00001C2.5 1.4352 3.76853 0.166672 5.33333 0.166672C6.89814 0.166672 8.16667 1.4352 8.16667 3.00001C8.16667 4.56481 6.89814 5.83334 5.33333 5.83334C3.76853 5.83334 2.5 4.56481 2.5 3.00001ZM5.33333 1.16667C4.32081 1.16667 3.5 1.98748 3.5 3.00001C3.5 4.01253 4.32081 4.83334 5.33333 4.83334C6.34586 4.83334 7.16667 4.01253 7.16667 3.00001C7.16667 1.98748 6.34586 1.16667 5.33333 1.16667Z" fill="black"/>
<path fill-rule="evenodd" clip-rule="evenodd" d="M0.166668 9.33334C0.166668 7.95263 1.28596 6.83334 2.66667 6.83334H2.89391C3.01691 6.83334 3.13913 6.85279 3.25605 6.89097L3.83306 7.07938C4.80792 7.3977 5.85875 7.3977 6.83361 7.07938L7.41062 6.89097C7.52754 6.85279 7.64976 6.83334 7.77276 6.83334H8C9.38071 6.83334 10.5 7.95263 10.5 9.33334V10.1255C10.5 10.6277 10.1361 11.0558 9.64049 11.1368C6.78794 11.6025 3.87873 11.6025 1.02618 11.1368C0.53059 11.0558 0.166668 10.6277 0.166668 10.1255V9.33334ZM2.66667 7.83334C1.83824 7.83334 1.16667 8.50491 1.16667 9.33334V10.1255C1.16667 10.1376 1.17541 10.1479 1.18731 10.1498C3.93315 10.5981 6.73352 10.5981 9.47935 10.1498C9.49126 10.1479 9.5 10.1376 9.5 10.1255V9.33334C9.5 8.50491 8.82843 7.83334 8 7.83334H7.77276C7.75519 7.83334 7.73772 7.83612 7.72102 7.84157L7.14401 8.02998C5.96746 8.41416 4.69921 8.41416 3.52266 8.02998L2.94565 7.84157C2.92895 7.83612 2.91148 7.83334 2.89391 7.83334H2.66667Z" fill="black"/>
<path d="M11 2.16667C11.2761 2.16667 11.5 2.39053 11.5 2.66667V3.83334H12.6667C12.9428 3.83334 13.1667 4.0572 13.1667 4.33334C13.1667 4.60948 12.9428 4.83334 12.6667 4.83334H11.5V6.00001C11.5 6.27615 11.2761 6.50001 11 6.50001C10.7239 6.50001 10.5 6.27615 10.5 6.00001V4.83334H9.33333C9.05719 4.83334 8.83333 4.60948 8.83333 4.33334C8.83333 4.0572 9.05719 3.83334 9.33333 3.83334H10.5V2.66667C10.5 2.39053 10.7239 2.16667 11 2.16667Z" fill="black"/>
</svg>
