<svg width="12" height="15" viewBox="0 0 12 15" fill="none" xmlns="http://www.w3.org/2000/svg">
<path fill-rule="evenodd" clip-rule="evenodd" d="M8.35355 4.97977C8.54881 5.17504 8.54881 5.49162 8.35355 5.68688L6.02022 8.02022C5.82495 8.21548 5.50837 8.21548 5.31311 8.02022L3.97978 6.68688C3.78451 6.49162 3.78451 6.17504 3.97978 5.97977C4.17504 5.78451 4.49162 5.78451 4.68688 5.97977L5.66666 6.95955L7.64644 4.97977C7.84171 4.78451 8.15829 4.78451 8.35355 4.97977Z" fill="black"/>
<path fill-rule="evenodd" clip-rule="evenodd" d="M0.349572 5.90456C0.58579 3.03882 2.98056 0.833328 5.85602 0.833328H6.14398C9.01944 0.833328 11.4142 3.03882 11.6504 5.90456C11.7773 7.44399 11.3018 8.97259 10.324 10.1684L7.12865 14.0762C6.54531 14.7896 5.45468 14.7896 4.87135 14.0762L1.67597 10.1684C0.6982 8.97259 0.222679 7.44399 0.349572 5.90456ZM5.85602 1.83333C3.50099 1.83333 1.53966 3.63965 1.34619 5.98671C1.24058 7.26794 1.63635 8.54015 2.45012 9.53537L5.64549 13.4432C5.82872 13.6673 6.17128 13.6673 6.3545 13.4432L9.54988 9.53537C10.3636 8.54015 10.7594 7.26794 10.6538 5.98671C10.4603 3.63965 8.499 1.83333 6.14398 1.83333H5.85602Z" fill="black"/>
</svg>
