<svg width="14" height="12" viewBox="0 0 14 12" fill="none" xmlns="http://www.w3.org/2000/svg">
<path fill-rule="evenodd" clip-rule="evenodd" d="M5.99091 0.742784C6.44052 -0.0320604 7.55948 -0.0320583 8.00909 0.742785L9.38599 3.11569C9.51291 3.33441 9.73228 3.48368 9.98232 3.52144L12.2687 3.86678C13.2654 4.01731 13.615 5.27569 12.8388 5.91876L11.1729 7.29897C10.9391 7.49269 10.8291 7.79827 10.8859 8.09656L11.3526 10.5472C11.5354 11.5072 10.5276 12.253 9.66294 11.7978L7.38825 10.6C7.14523 10.4721 6.85477 10.4721 6.61175 10.6L4.33706 11.7978C3.47238 12.253 2.46463 11.5072 2.64743 10.5472L3.11409 8.09656C3.17089 7.79827 3.06094 7.49269 2.82711 7.29897L1.16118 5.91876C0.38499 5.27569 0.734592 4.01731 1.73126 3.86678L4.01769 3.52144C4.26773 3.48368 4.48709 3.33441 4.61401 3.11569L5.99091 0.742784ZM7.14416 1.24467C7.07993 1.13398 6.92008 1.13398 6.85585 1.24467L5.47894 3.61758C5.19973 4.09877 4.71712 4.42714 4.16703 4.51023L1.8806 4.85556C1.73822 4.87707 1.68828 5.05684 1.79916 5.1487L3.46509 6.52891C3.97952 6.95511 4.2214 7.62738 4.09644 8.28362L3.62978 10.7343C3.60367 10.8714 3.74763 10.978 3.87116 10.9129L6.14585 9.7152C6.68049 9.43368 7.31951 9.43369 7.85416 9.7152L10.1288 10.9129C10.2524 10.978 10.3963 10.8714 10.3702 10.7343L9.90357 8.28362C9.77861 7.62738 10.0205 6.95511 10.5349 6.52891L12.2008 5.1487C12.3117 5.05684 12.2618 4.87707 12.1194 4.85556L9.83297 4.51023C9.28288 4.42714 8.80027 4.09877 8.52106 3.61758L7.14416 1.24467Z" fill="url(#paint0_linear_24_13)"/>
<defs>
<linearGradient id="paint0_linear_24_13" x1="13.2623" y1="0.161652" x2="-1.21297" y2="3.51527" gradientUnits="userSpaceOnUse">
<stop stop-color="#FF3932"/>
<stop offset="1" stop-color="#B90902"/>
</linearGradient>
</defs>
</svg>
