<svg width="10" height="12" viewBox="0 0 10 12" fill="none" xmlns="http://www.w3.org/2000/svg">
<path d="M4.64643 3.68688C4.7402 3.78065 4.86738 3.83333 4.99999 3.83333C5.13259 3.83333 5.25977 3.78065 5.35354 3.68688L6.02021 3.02021C6.1632 2.87721 6.20598 2.66216 6.12859 2.47532C6.0512 2.28848 5.86888 2.16666 5.66665 2.16666H4.33332C4.13109 2.16666 3.94877 2.28848 3.87138 2.47532C3.79399 2.66216 3.83677 2.87721 3.97976 3.02021L4.64643 3.68688Z" fill="black"/>
<path d="M4.64643 8.31311C4.7402 8.21934 4.86738 8.16666 4.99999 8.16666C5.13259 8.16666 5.25977 8.21934 5.35354 8.31311L6.02021 8.97977C6.1632 9.12277 6.20598 9.33783 6.12859 9.52467C6.0512 9.7115 5.86888 9.83333 5.66665 9.83333H4.33332C4.13109 9.83333 3.94877 9.7115 3.87138 9.52467C3.79399 9.33783 3.83677 9.12277 3.97976 8.97977L4.64643 8.31311Z" fill="black"/>
<path fill-rule="evenodd" clip-rule="evenodd" d="M5.766 5.99999L5.89087 5.89241C7.20782 4.75774 8.30278 3.38852 9.12012 1.85431C9.44086 1.25226 9.04266 0.518208 8.36309 0.458793L7.58073 0.39039C5.86352 0.240251 4.13647 0.240252 2.41925 0.390391L1.63689 0.458794C0.957327 0.51821 0.559126 1.25226 0.879865 1.85431C1.69721 3.38852 2.79216 4.75774 4.10912 5.89241L4.23398 5.99999L4.10912 6.10757C2.79216 7.24225 1.69721 8.61146 0.879865 10.1457C0.559126 10.7477 0.957327 11.4818 1.63689 11.5412L2.41925 11.6096C4.13647 11.7597 5.86352 11.7597 7.58073 11.6096L8.36309 11.5412C9.04266 11.4818 9.44086 10.7477 9.12012 10.1457C8.30278 8.61146 7.20782 7.24225 5.89087 6.10757L5.766 5.99999ZM5.00242 5.3375C5.00272 5.33739 5.00327 5.33718 5.00432 5.33628L5.23814 5.13482C6.44288 4.09683 7.4476 2.84752 8.20297 1.44861L7.49363 1.38659C5.83437 1.24152 4.16561 1.24152 2.50635 1.38659L1.79702 1.44861C2.55238 2.84752 3.55711 4.09683 4.76185 5.13482L4.99567 5.33628C4.99633 5.33685 4.9968 5.33715 4.99713 5.33732C4.99702 5.33728 4.99731 5.33741 4.99713 5.33732C4.99764 5.3375 4.99891 5.33788 4.99999 5.33788C5.00107 5.33788 5.00191 5.33769 5.00242 5.3375ZM5.00432 6.66371C5.00327 6.66281 5.00272 6.66259 5.00242 6.66248C5.00218 6.66239 5.00186 6.6623 5.00148 6.66223C5.00106 6.66215 5.00056 6.6621 4.99999 6.6621C4.99891 6.6621 4.99807 6.6623 4.99757 6.66248C4.99726 6.66259 4.99671 6.66281 4.99567 6.66371L4.76185 6.86516C3.55711 7.90316 2.55238 9.15246 1.79702 10.5514L2.50635 10.6134C4.16561 10.7585 5.83437 10.7585 7.49363 10.6134L8.20297 10.5514C7.4476 9.15246 6.44288 7.90316 5.23814 6.86516L5.00432 6.66371Z" fill="black"/>
</svg>
