<svg width="14" height="12" viewBox="0 0 14 12" fill="none" xmlns="http://www.w3.org/2000/svg">
<path d="M3.30072 1.50632C2.49009 1.59159 1.84122 2.19375 1.74742 2.94849C1.49548 4.97592 1.49548 7.02408 1.74742 9.05152C1.84122 9.80626 2.49008 10.4084 3.30072 10.4937C5.40931 10.7155 7.59071 10.7155 9.6993 10.4937C10.5099 10.4084 11.1588 9.80626 11.2526 9.05152C11.4336 7.59475 11.4846 6.12728 11.4055 4.66449C11.4034 4.62672 11.4184 4.58987 11.4468 4.56313L12.1826 3.87061C12.2678 3.79045 12.4133 3.84057 12.4224 3.95361C12.5612 5.69022 12.5231 7.43623 12.3079 9.16768C12.1557 10.3923 11.111 11.3514 9.81732 11.4875C7.6303 11.7176 5.36973 11.7176 3.18271 11.4875C1.88902 11.3514 0.844303 10.3923 0.692118 9.16768C0.430579 7.06307 0.430579 4.93694 0.692118 2.83232C0.844303 1.60768 1.88902 0.648589 3.18271 0.512506C5.36973 0.282453 7.6303 0.282453 9.81731 0.512506C10.273 0.560434 10.6977 0.710454 11.0635 0.938211C11.1354 0.983027 11.1426 1.07825 11.0815 1.13568L10.5128 1.67094C10.4663 1.71472 10.3942 1.72209 10.3362 1.69284C10.1425 1.59518 9.92731 1.5303 9.6993 1.50632C7.59071 1.28452 5.40931 1.28452 3.30072 1.50632Z" fill="url(#paint0_linear_27_10)"/>
<path d="M12.8965 2.02023C13.104 1.82496 13.104 1.50838 12.8965 1.31312C12.689 1.11786 12.3526 1.11786 12.1452 1.31312L6.14583 6.95957L4.39649 5.31312C4.18902 5.11786 3.85265 5.11786 3.64518 5.31312C3.43772 5.50838 3.43772 5.82496 3.64518 6.02023L5.77018 8.02023C5.97765 8.21549 6.31402 8.21549 6.52149 8.02023L12.8965 2.02023Z" fill="url(#paint1_linear_27_10)"/>
<defs>
<linearGradient id="paint0_linear_27_10" x1="13.0521" y1="0.339966" x2="-1.39547" y2="3.82987" gradientUnits="userSpaceOnUse">
<stop stop-color="#FF3932"/>
<stop offset="1" stop-color="#B90902"/>
</linearGradient>
<linearGradient id="paint1_linear_27_10" x1="13.0521" y1="0.339966" x2="-1.39547" y2="3.82987" gradientUnits="userSpaceOnUse">
<stop stop-color="#FF3932"/>
<stop offset="1" stop-color="#B90902"/>
</linearGradient>
</defs>
</svg>
